<svg xmlns="http://www.w3.org/2000/svg" viewBox="0 0 60 60"><defs><style>.cls-1{fill:#dc4556;}.cls-2{fill:#fff;}</style></defs><g id="레이어_2" data-name="레이어 2"><g id="레이어_1-2" data-name="레이어 1"><rect class="cls-1" width="60" height="60" rx="10"/><path class="cls-2" d="M52.4,13.77H50.94c-.44-2.11-1-2.82-2.2-2.77s-1.77.78-2.05,2.77H45.52c-12.21,0-24.41,0-36.62,0A3.92,3.92,0,0,0,5,17.5c.06,2.44,0,4.88,0,7.32a3.62,3.62,0,0,0,3.6,3.77,2.68,2.68,0,0,1,2.55,1.46,4.16,4.16,0,0,1,.19,2.34c-1.08,4.34-2.27,8.66-3.41,13-.56,2.15.61,3.6,2.89,3.61,2.7,0,5.4,0,8.11,0,2.15,0,2.88-.56,3.44-2.63q2.26-8.41,4.5-16.84c.19-.71.46-1,1.24-1,4.25,0,8.5-.09,12.74.07,2.18.08,3.9-.41,5.19-2.14a1.57,1.57,0,0,1,1.47-.6c1.54,0,3.09,0,4.63,0s2.76-.95,2.79-2.35c.07-2.47.06-4.94,0-7.41A2.41,2.41,0,0,0,52.4,13.77Zm-7.28,8.14q-16.69,0-33.38,0H10.49V19.19c.41,0,.78-.06,1.16-.06H45.56c1.21,0,1.22,0,1.21,1.17C46.75,22.16,47,21.91,45.12,21.91Z"/></g></g></svg>