<svg xmlns="http://www.w3.org/2000/svg" viewBox="0 0 60 60"><defs><style>.cls-1{fill:#599fcb;}.cls-2{fill:#fff;}</style></defs><g id="레이어_2" data-name="레이어 2"><g id="레이어_1-2" data-name="레이어 1"><rect class="cls-1" width="60" height="60" rx="10"/><path class="cls-2" d="M26.72,30.5c1.38,0,2.75,0,4.13,0h0C29.47,30.5,28.1,30.51,26.72,30.5Z"/><path class="cls-2" d="M22,24.43a3,3,0,0,1,1.44,2.85c-.1,2.1,1.1,3.2,3.24,3.22,1.38,0,2.75,0,4.13,0h3.62c2.82,0,3.8-.93,3.76-3.72a2.12,2.12,0,0,1,1-2,11.19,11.19,0,0,0,.23-18.41,15,15,0,0,0-17.29,0A11.15,11.15,0,0,0,22,24.43ZM36.13,14a2.91,2.91,0,0,1,3.07,3A2.92,2.92,0,0,1,36,20,2.91,2.91,0,0,1,33,17,2.91,2.91,0,0,1,36.13,14ZM25.82,14a2.92,2.92,0,0,1,2.88,3.1A2.94,2.94,0,0,1,25.42,20a2.91,2.91,0,0,1-2.93-3.16A2.94,2.94,0,0,1,25.82,14Z"/><path class="cls-2" d="M49.93,33.26A3.06,3.06,0,0,0,51.7,30a2.72,2.72,0,0,0-2.48-2.29A4.54,4.54,0,0,0,47,28.2q-7.57,3.72-15.09,7.54a2,2,0,0,1-2.08,0c-5-2.53-10-5-15-7.5a7.09,7.09,0,0,0-1.38-.55,2.78,2.78,0,0,0-3.35,3.48,4.52,4.52,0,0,0,2,2.22c3.52,1.89,7.13,3.61,10.7,5.4.39.2.77.43,1.32.73-.54.31-.92.54-1.31.73-3.68,1.85-7.38,3.68-11,5.55A3.06,3.06,0,0,0,10,49.09a2.73,2.73,0,0,0,2.48,2.29,4.54,4.54,0,0,0,2.24-.51q7.58-3.72,15.09-7.54a2.06,2.06,0,0,1,2.09,0c5,2.53,10,5,15,7.5a7.09,7.09,0,0,0,1.38.55,2.79,2.79,0,0,0,3.35-3.49,4.54,4.54,0,0,0-2-2.21c-3.52-1.89-7.13-3.61-10.7-5.4-.39-.2-.77-.43-1.32-.73.54-.31.92-.54,1.31-.74C42.57,37,46.26,35.13,49.93,33.26Z"/></g></g></svg>