<svg xmlns="http://www.w3.org/2000/svg" viewBox="0 0 208 90.98"><defs><style>.cls-1{fill:#fff;}</style></defs><g id="레이어_2" data-name="레이어 2"><g id="레이어_1-2" data-name="레이어 1"><path class="cls-1" d="M14.75,87.66A44.86,44.86,0,0,1,0,78.18L10.07,66.1a39.84,39.84,0,0,0,10.6,7.05,28,28,0,0,0,11.67,2.66q6.87,0,10.42-2.72a8.79,8.79,0,0,0,3.56-7.35,8.26,8.26,0,0,0-1-4.14,9.81,9.81,0,0,0-2.67-3,20.86,20.86,0,0,0-4.14-2.36L33.17,53.9l-11.73-5a36.68,36.68,0,0,1-8.59-5,25.71,25.71,0,0,1-6.57-7.64,21.73,21.73,0,0,1-2.61-11,22.82,22.82,0,0,1,2.25-10A24,24,0,0,1,12.2,7.28,30.3,30.3,0,0,1,21.8,2,36.39,36.39,0,0,1,34,0,39.63,39.63,0,0,1,49,2.9a36.55,36.55,0,0,1,12.5,8.35l-8.89,11A34.43,34.43,0,0,0,44,16.94,25.5,25.5,0,0,0,34,15q-5.8,0-9.24,2.43a7.87,7.87,0,0,0-3.44,6.81,6.79,6.79,0,0,0,1.13,3.91,11.4,11.4,0,0,0,3,3,25.57,25.57,0,0,0,4.32,2.43q2.49,1.13,5.33,2.19l11.49,4.86a33.38,33.38,0,0,1,12.92,8.76q4.72,5.46,4.73,15A24.56,24.56,0,0,1,55.67,83.1a31.07,31.07,0,0,1-10.12,5.74A40.3,40.3,0,0,1,32,91,46.31,46.31,0,0,1,14.75,87.66Z"/><path class="cls-1" d="M88,87.84a34.46,34.46,0,0,1-12.44-9.13,42.12,42.12,0,0,1-8-14.45,59.77,59.77,0,0,1-2.84-19.13,59.26,59.26,0,0,1,2.84-19.07,40.35,40.35,0,0,1,8-14.21A34.27,34.27,0,0,1,88,3a40.85,40.85,0,0,1,15.88-3,40,40,0,0,1,15.93,3.08,35.35,35.35,0,0,1,12.37,8.83,39.36,39.36,0,0,1,8.06,14.15,59.54,59.54,0,0,1,2.84,19.07,60.05,60.05,0,0,1-2.84,19.13,41.81,41.81,0,0,1-8.06,14.45,34.56,34.56,0,0,1-12.37,9.13,41.85,41.85,0,0,1-31.81,0Zm24.7-14.22a20,20,0,0,0,6.75-6.16,29.56,29.56,0,0,0,4.26-9.66,50.08,50.08,0,0,0,1.48-12.67q0-14.33-5.62-22.21T103.89,15q-10.08,0-15.7,7.88T82.56,45.13A50.53,50.53,0,0,0,84,57.8a29.56,29.56,0,0,0,4.27,9.66,19.89,19.89,0,0,0,6.75,6.16,18.88,18.88,0,0,0,17.65,0Z"/><path class="cls-1" d="M158.54,87.66a44.92,44.92,0,0,1-14.74-9.48L153.87,66.1a39.84,39.84,0,0,0,10.6,7.05,27.89,27.89,0,0,0,11.67,2.66q6.87,0,10.42-2.72a8.79,8.79,0,0,0,3.56-7.35,8.16,8.16,0,0,0-1-4.14,9.9,9.9,0,0,0-2.66-3,20.67,20.67,0,0,0-4.15-2.36L177,53.9l-11.72-5a36.48,36.48,0,0,1-8.59-5,25.74,25.74,0,0,1-6.58-7.64,21.84,21.84,0,0,1-2.6-11,22.82,22.82,0,0,1,2.25-10A24,24,0,0,1,156,7.28,30.36,30.36,0,0,1,165.59,2a36.43,36.43,0,0,1,12.2-2,39.65,39.65,0,0,1,15,2.9,36.65,36.65,0,0,1,12.5,8.35l-8.89,11a34.48,34.48,0,0,0-8.65-5.33,25.46,25.46,0,0,0-10-1.9q-5.81,0-9.24,2.43a7.86,7.86,0,0,0-3.43,6.81,6.79,6.79,0,0,0,1.13,3.91,11.4,11.4,0,0,0,3,3,25.57,25.57,0,0,0,4.32,2.43c1.66.75,3.43,1.48,5.33,2.19l11.49,4.86a33.34,33.34,0,0,1,12.91,8.76q4.74,5.46,4.74,15a24.56,24.56,0,0,1-8.53,18.66,31,31,0,0,1-10.13,5.74A40.2,40.2,0,0,1,175.78,91,46.36,46.36,0,0,1,158.54,87.66Z"/></g></g></svg>